# xmcd
#
# Track frame offsets: 
#        150
#        17264
#        35084
#        60470
#        72602
#        91427
#        102968
#        126399
#        142592
#        155450
#        175072
#        193608
#        209876
#        232899
#        253213
#        272120
#        292240
#        309344
#
# Disc length: 4342 seconds
#
# Revision: 0
# Processed by: cddbd v1.5.2PL0 Copyright (c) Steve Scherf et al.
# Submitted via: ExactAudioCopy v0.99pb5
#
DISCID=0c10f412
DTITLE=The Asylum Street Spanker - God's Favorite Sampler
DYEAR=1900
DGENRE=Blues
TTITLE0=Beer (radio edit)
TTITLE1=Leaf Blower (radio edit)
TTITLE2=My Baby in the CIA (radio edit)
TTITLE3=Breathin' (radio edit)
TTITLE4=Wammo's Blues
TTITLE5=The Minor Waltz
TTITLE6=High As You Can Be
TTITLE7=Blade of Gras
TTITLE8=Some of these Days
TTITLE9=Hick Hop (radio edit)
TTITLE10=Since I Met You Baby
TTITLE11=Be Like You
TTITLE12=You Only Love Me For My Lunchbox
TTITLE13=Sidekick
TTITLE14=Song With No Words
TTITLE15=Startin'To Hate Country
TTITLE16=If I Were You
TTITLE17=Asylum Street Blues
EXTD=
EXTT0=
EXTT1=
EXTT2=
EXTT3=
EXTT4=
EXTT5=
EXTT6=
EXTT7=
EXTT8=
EXTT9=
EXTT10=
EXTT11=
EXTT12=
EXTT13=
EXTT14=
EXTT15=
EXTT16=
EXTT17=
PLAYORDER=
